<svg width="26" height="26" viewBox="0 0 26 26" fill="none" xmlns="http://www.w3.org/2000/svg">
<path d="M16 10.5C16 7.46 13.54 5 10.5 5C7.46 5 5 7.46 5 10.5C5 13.54 7.46 16 10.5 16C13.54 16 16 13.54 16 10.5ZM6.5 10.5C6.5 8.29 8.29 6.5 10.5 6.5C12.71 6.5 14.5 8.29 14.5 10.5C14.5 12.71 12.71 14.5 10.5 14.5C8.29 14.5 6.5 12.71 6.5 10.5Z" fill="#5F6368"/>
<path d="M19.5 10H17.47C17.48 10.17 17.5 10.33 17.5 10.5C17.5 10.84 17.47 11.17 17.42 11.5H19.5V19.5H11.5V17.42C11.17 17.47 10.84 17.5 10.5 17.5C10.33 17.5 10.17 17.49 10 17.47V19.5C10 20.33 10.67 21 11.5 21H19.5C20.33 21 21 20.33 21 19.5V11.5C21 10.67 20.33 10 19.5 10Z" fill="#5F6368"/>
</svg>
