<svg width="26" height="26" viewBox="0 0 26 26" fill="none" xmlns="http://www.w3.org/2000/svg">
<path d="M15.5 9H10.5C9.67 9 9 9.67 9 10.5V15.4844C9 16.3144 9.67 17 10.5 17H15.5C16.33 17 17 16.3144 17 15.4844V10.5C17 9.67 16.33 9 15.5 9ZM7.5 19.9844C8.33 19.9844 10 19.9844 11 19.9844C12 19.9844 12.5176 19.4844 12.5176 18.4844C12.5176 17.4844 12.5 18 12.5 18H11V18.4844H7.5L7.49988 14.9844L8 15V13.4844C8 13.4844 8.49988 13.4844 7.49988 13.4844C6.49988 13.4844 6 14.4844 6 15.4844V18.4844C6 19.3144 6.67 19.9844 7.5 19.9844Z" fill="#5F6368"/>
<path d="M18 11V12.5C18 12.5 17.5 12.5 18.5 12.5C19.5 12.5 20 12.0002 20 11.0001C20 10 20 8.5 20 7.5C20 6.5 19.5 6 18.5 6C17.5 6 15.5 6 15 6C14.5 6 13.5 6.5 13.5 7.5C13.5 8.5 13.5 8 13.5 8H15V7.5H18.5V11H18Z" fill="#5F6368"/>
</svg>
