<svg width="26" height="26" viewBox="0 0 26 26" fill="none" xmlns="http://www.w3.org/2000/svg">
<path d="M18.5 6H11.5C10.67 6 10 6.67 10 7.5V14.5C10 15.33 10.67 16 11.5 16H18.5C19.33 16 20 15.33 20 14.5V7.5C20 6.67 19.33 6 18.5 6ZM18.5 14.5H11.5V7.5H18.5V14.5ZM7.5 20C7.5 20 14.6947 20 15.5 20C16.3053 20 17 19.5 17 18.5C17 17.5 17 17 17 17C17 17 11 17 10.5 17C10 17 9 16 9 15.366C9 14.7319 9 10.5 9 10.5V9C9 9 8.23443 9 7.5 9C6.76557 9 6 9.64954 6 10.5C6 11.3505 6 18.5 6 18.5C6 19.33 6.67 20 7.5 20Z" fill="#5F6368"/>
</svg>
