<svg width="26" height="26" viewBox="0 0 26 26" fill="none" xmlns="http://www.w3.org/2000/svg">
<mask id="mask0_265_26" style="mask-type:alpha" maskUnits="userSpaceOnUse" x="5" y="5" width="16" height="16">
<path fill-rule="evenodd" clip-rule="evenodd" d="M13 20.5C8.8675 20.5 5.5 17.1325 5.5 13C5.5 8.8675 8.8675 5.5 13 5.5C17.1325 5.5 20.5 8.53 20.5 12.25C20.5 14.7325 18.4825 16.75 16 16.75H14.6725C14.4625 16.75 14.2975 16.915 14.2975 17.125C14.2975 17.215 14.335 17.2975 14.395 17.3725C14.7025 17.725 14.875 18.1675 14.875 18.625C14.875 19.66 14.035 20.5 13 20.5ZM13 7C9.6925 7 7 9.6925 7 13C7 16.3075 9.6925 19 13 19C13.21 19 13.375 18.835 13.375 18.625C13.375 18.505 13.315 18.415 13.27 18.3625C12.9625 18.0175 12.7975 17.575 12.7975 17.125C12.7975 16.09 13.6375 15.25 14.6725 15.25H16C17.6575 15.25 19 13.9075 19 12.25C19 9.355 16.3075 7 13 7ZM8.875 13.75C9.49632 13.75 10 13.2463 10 12.625C10 12.0037 9.49632 11.5 8.875 11.5C8.25368 11.5 7.75 12.0037 7.75 12.625C7.75 13.2463 8.25368 13.75 8.875 13.75ZM11.125 10.75C11.7463 10.75 12.25 10.2463 12.25 9.625C12.25 9.00368 11.7463 8.5 11.125 8.5C10.5037 8.5 10 9.00368 10 9.625C10 10.2463 10.5037 10.75 11.125 10.75ZM14.875 10.75C15.4963 10.75 16 10.2463 16 9.625C16 9.00368 15.4963 8.5 14.875 8.5C14.2537 8.5 13.75 9.00368 13.75 9.625C13.75 10.2463 14.2537 10.75 14.875 10.75ZM17.125 13.75C17.7463 13.75 18.25 13.2463 18.25 12.625C18.25 12.0037 17.7463 11.5 17.125 11.5C16.5037 11.5 16 12.0037 16 12.625C16 13.2463 16.5037 13.75 17.125 13.75Z" fill="#5F6368"/>
</mask>
<g mask="url(#mask0_265_26)">
<path fill-rule="evenodd" clip-rule="evenodd" d="M4 4H22V22H4V4Z" fill="#5F6368"/>
</g>
</svg>
