<svg width="26" height="26" viewBox="0 0 26 26" fill="none" xmlns="http://www.w3.org/2000/svg">
<path fill-rule="evenodd" clip-rule="evenodd" d="M15.5 6H18.5C19.33 6 20 6.67 20 7.5V10.5C20 11.33 19.33 12 18.5 12H15.5C14.5 12 14 11.5 14 10.5V7.5C14 6.67 14.67 6 15.5 6ZM15.5 10.5H18.5V7.5H15.5V10.5Z" fill="#5F6368"/>
<path fill-rule="evenodd" clip-rule="evenodd" d="M7.5 20C6.5 20 6 19.5 6 18.5C6 17.5 6 16.3874 6 15.5C6 14.6126 6.5 14 7.5 14C8.5 14 9.5 14 10.5 14C11.5 14 12 14.5 12 15.5C12 16.5 12 17.5 12 18.5C12 19.5 11.5 20 10.5 20C9.5 20 8.5 20 7.5 20ZM7.5 18.5V15.5H10.5V18.5H7.5Z" fill="#5F6368"/>
<path d="M18 13V16.5C18 17.5 17.3053 18 16.5 18H13C13 18 13 16.5 13 15C13 13.5 12 13 11 13C10 13 8 13 8 13V9.5C8 8.5 8.76557 8 9.5 8H13C13 8 13 9.5 13 11C13 12.5 13.778 13 15 13C16.222 13 18 13 18 13Z" fill="#5F6368"/>
</svg>
